<svg xmlns="http://www.w3.org/2000/svg" xmlns:xlink="http://www.w3.org/1999/xlink" version="1.1" width="530.32" height="508.51" viewBox="0 0 530.32 508.51">
<defs>
<clipPath id="clip_0">
<path transform="matrix(.75,0,0,.75,139.575,341.16004)" d="M-11.26-66.72H3.94V70.72H-11.26Z" fill-rule="evenodd"/>
</clipPath>
</defs>
<path transform="matrix(.75,0,0,.75,-1.71,-43.559999)" d="M0 0H1122.56V793.76H0Z" fill="#ffffff"/>
<path transform="matrix(.75,0,0,.75,-1.71,-43.559999)" stroke-width=".32" stroke-linecap="butt" stroke-miterlimit="10" stroke-linejoin="miter" fill="none" stroke="#c0c0c0" d="M27.36 723.2V75.36"/>
<path transform="matrix(.75,0,0,.75,-1.71,-43.559999)" stroke-width="1.6" stroke-linecap="butt" stroke-miterlimit="10" stroke-linejoin="miter" fill="none" stroke="#000000" d="M27.36 540.64V534.08"/>
<path transform="matrix(.75,0,0,.75,-1.71,-43.559999)" stroke-width=".32" stroke-linecap="butt" stroke-miterlimit="10" stroke-linejoin="miter" fill="none" stroke="#c0c0c0" d="M96.96 723.2V75.36"/>
<path transform="matrix(.75,0,0,.75,-1.71,-43.559999)" stroke-width="1.6" stroke-linecap="butt" stroke-miterlimit="10" stroke-linejoin="miter" fill="none" stroke="#000000" d="M96.96 540.64V534.08"/>
<path transform="matrix(.75,0,0,.75,-1.71,-43.559999)" stroke-width=".32" stroke-linecap="butt" stroke-miterlimit="10" stroke-linejoin="miter" fill="none" stroke="#c0c0c0" d="M236.16 723.2V75.36"/>
<path transform="matrix(.75,0,0,.75,-1.71,-43.559999)" stroke-width="1.6" stroke-linecap="butt" stroke-miterlimit="10" stroke-linejoin="miter" fill="none" stroke="#000000" d="M236.16 540.64V534.08"/>
<path transform="matrix(.75,0,0,.75,-1.71,-43.559999)" stroke-width=".32" stroke-linecap="butt" stroke-miterlimit="10" stroke-linejoin="miter" fill="none" stroke="#c0c0c0" d="M305.76 723.2V75.36"/>
<path transform="matrix(.75,0,0,.75,-1.71,-43.559999)" stroke-width="1.6" stroke-linecap="butt" stroke-miterlimit="10" stroke-linejoin="miter" fill="none" stroke="#000000" d="M305.76 540.64V534.08"/>
<path transform="matrix(.75,0,0,.75,-1.71,-43.559999)" stroke-width=".32" stroke-linecap="butt" stroke-miterlimit="10" stroke-linejoin="miter" fill="none" stroke="#c0c0c0" d="M375.36 723.2V75.36"/>
<path transform="matrix(.75,0,0,.75,-1.71,-43.559999)" stroke-width="1.6" stroke-linecap="butt" stroke-miterlimit="10" stroke-linejoin="miter" fill="none" stroke="#000000" d="M375.36 540.64V534.08"/>
<path transform="matrix(.75,0,0,.75,-1.71,-43.559999)" stroke-width=".32" stroke-linecap="butt" stroke-miterlimit="10" stroke-linejoin="miter" fill="none" stroke="#c0c0c0" d="M444.96 723.2V75.36"/>
<path transform="matrix(.75,0,0,.75,-1.71,-43.559999)" stroke-width="1.6" stroke-linecap="butt" stroke-miterlimit="10" stroke-linejoin="miter" fill="none" stroke="#000000" d="M444.96 540.64V534.08"/>
<path transform="matrix(.75,0,0,.75,-1.71,-43.559999)" stroke-width=".32" stroke-linecap="butt" stroke-miterlimit="10" stroke-linejoin="miter" fill="none" stroke="#c0c0c0" d="M514.56 723.2V75.36"/>
<path transform="matrix(.75,0,0,.75,-1.71,-43.559999)" stroke-width="1.6" stroke-linecap="butt" stroke-miterlimit="10" stroke-linejoin="miter" fill="none" stroke="#000000" d="M514.56 540.64V534.08"/>
<path transform="matrix(.75,0,0,.75,-1.71,-43.559999)" stroke-width=".32" stroke-linecap="butt" stroke-miterlimit="10" stroke-linejoin="miter" fill="none" stroke="#c0c0c0" d="M584 723.2V75.36"/>
<path transform="matrix(.75,0,0,.75,-1.71,-43.559999)" stroke-width="1.6" stroke-linecap="butt" stroke-miterlimit="10" stroke-linejoin="miter" fill="none" stroke="#000000" d="M584 540.64V534.08"/>
<path transform="matrix(.75,0,0,.75,-1.71,-43.559999)" stroke-width=".32" stroke-linecap="butt" stroke-miterlimit="10" stroke-linejoin="miter" fill="none" stroke="#c0c0c0" d="M653.6 723.2V75.36"/>
<path transform="matrix(.75,0,0,.75,-1.71,-43.559999)" stroke-width="1.6" stroke-linecap="butt" stroke-miterlimit="10" stroke-linejoin="miter" fill="none" stroke="#000000" d="M653.6 540.64V534.08"/>
<path transform="matrix(.75,0,0,.75,-1.71,-43.559999)" stroke-width=".32" stroke-linecap="butt" stroke-miterlimit="10" stroke-linejoin="miter" fill="none" stroke="#c0c0c0" d="M14.88 676.64H695.84"/>
<path transform="matrix(.75,0,0,.75,-1.71,-43.559999)" stroke-width="1.6" stroke-linecap="butt" stroke-miterlimit="10" stroke-linejoin="miter" fill="none" stroke="#000000" d="M163.2 676.64H169.76"/>
<path transform="matrix(.75,0,0,.75,-1.71,-43.559999)" stroke-width=".32" stroke-linecap="butt" stroke-miterlimit="10" stroke-linejoin="miter" fill="none" stroke="#c0c0c0" d="M14.88 607.04H695.84"/>
<path transform="matrix(.75,0,0,.75,-1.71,-43.559999)" stroke-width="1.6" stroke-linecap="butt" stroke-miterlimit="10" stroke-linejoin="miter" fill="none" stroke="#000000" d="M163.2 607.04H169.76"/>
<path transform="matrix(.75,0,0,.75,-1.71,-43.559999)" stroke-width=".32" stroke-linecap="butt" stroke-miterlimit="10" stroke-linejoin="miter" fill="none" stroke="#c0c0c0" d="M14.88 467.84H695.84"/>
<path transform="matrix(.75,0,0,.75,-1.71,-43.559999)" stroke-width="1.6" stroke-linecap="butt" stroke-miterlimit="10" stroke-linejoin="miter" fill="none" stroke="#000000" d="M163.2 467.84H169.76"/>
<path transform="matrix(.75,0,0,.75,-1.71,-43.559999)" stroke-width=".32" stroke-linecap="butt" stroke-miterlimit="10" stroke-linejoin="miter" fill="none" stroke="#c0c0c0" d="M14.88 398.24H695.84"/>
<path transform="matrix(.75,0,0,.75,-1.71,-43.559999)" stroke-width="1.6" stroke-linecap="butt" stroke-miterlimit="10" stroke-linejoin="miter" fill="none" stroke="#000000" d="M163.2 398.24H169.76"/>
<path transform="matrix(.75,0,0,.75,-1.71,-43.559999)" stroke-width=".32" stroke-linecap="butt" stroke-miterlimit="10" stroke-linejoin="miter" fill="none" stroke="#c0c0c0" d="M14.88 328.64H695.84"/>
<path transform="matrix(.75,0,0,.75,-1.71,-43.559999)" stroke-width="1.6" stroke-linecap="butt" stroke-miterlimit="10" stroke-linejoin="miter" fill="none" stroke="#000000" d="M163.2 328.64H169.76"/>
<path transform="matrix(.75,0,0,.75,-1.71,-43.559999)" stroke-width=".32" stroke-linecap="butt" stroke-miterlimit="10" stroke-linejoin="miter" fill="none" stroke="#c0c0c0" d="M14.88 258.88H695.84"/>
<path transform="matrix(.75,0,0,.75,-1.71,-43.559999)" stroke-width="1.6" stroke-linecap="butt" stroke-miterlimit="10" stroke-linejoin="miter" fill="none" stroke="#000000" d="M163.2 258.88H169.76"/>
<path transform="matrix(.75,0,0,.75,-1.71,-43.559999)" stroke-width=".32" stroke-linecap="butt" stroke-miterlimit="10" stroke-linejoin="miter" fill="none" stroke="#c0c0c0" d="M14.88 189.28H695.84"/>
<path transform="matrix(.75,0,0,.75,-1.71,-43.559999)" stroke-width="1.6" stroke-linecap="butt" stroke-miterlimit="10" stroke-linejoin="miter" fill="none" stroke="#000000" d="M163.2 189.28H169.76"/>
<path transform="matrix(.75,0,0,.75,-1.71,-43.559999)" stroke-width=".32" stroke-linecap="butt" stroke-miterlimit="10" stroke-linejoin="miter" fill="none" stroke="#c0c0c0" d="M14.88 119.68H695.84"/>
<path transform="matrix(.75,0,0,.75,-1.71,-43.559999)" stroke-width="1.6" stroke-linecap="butt" stroke-miterlimit="10" stroke-linejoin="miter" fill="none" stroke="#000000" d="M163.2 119.68H169.76"/>
<path transform="matrix(.75,0,0,.75,-1.71,-43.559999)" stroke-width="1.6" stroke-linecap="butt" stroke-miterlimit="10" stroke-linejoin="miter" fill="none" stroke="#000000" d="M14.88 537.44H695.84"/>
<path transform="matrix(.75,0,0,.75,-1.71,-43.559999)" d="M695.84 540.8V534.08L702.56 537.44Z" fill-rule="evenodd"/>
<path transform="matrix(.75,0,0,.75,-1.71,-43.559999)" stroke-width="1.6" stroke-linecap="butt" stroke-miterlimit="10" stroke-linejoin="miter" fill="none" stroke="#000000" d="M166.56 723.2V75.36"/>
<path transform="matrix(.75,0,0,.75,-1.71,-43.559999)" d="M163.2 75.36H169.92L166.56 68.64Z" fill-rule="evenodd"/>
<path transform="matrix(.75,0,0,.75,132.45,359.52003)" stroke-width="1.6" stroke-linecap="butt" stroke-miterlimit="10" stroke-linejoin="miter" fill="none" stroke="#000000" d="M0 0C0 6.88-5.6 12.32-12.48 12.32-19.2 12.32-24.8 6.88-24.8 0-24.8-6.88-19.2-12.48-12.48-12.48-5.6-12.48 0-6.88 0 0"/>
<path transform="matrix(.75,0,0,.75,-1.71,-43.559999)" stroke-width="1.6" stroke-linecap="butt" stroke-miterlimit="10" stroke-linejoin="miter" fill="none" stroke="#000000" d="M27.36 542.4V532.48"/>
<path transform="matrix(.75,0,0,.75,6.33,385.2)" d="M15.398325-9.085438H1.606658V-11.474098H15.398325Z"/>
<path transform="matrix(.75,0,0,.75,19.05,385.2)" d="M14.701632 0H.895747C.895747-1.175372 1.305706-2.364963 2.125623-3.568771 2.94554-4.77258 4.478737-6.279711 6.725215-8.090163 8.099642-9.189705 9.327147-10.34375 10.407732-11.552299 11.488316-12.760845 12.028608-13.976502 12.028608-15.199269 12.028608-16.251416 11.656565-17.121098 10.912478-17.808312 10.168391-18.495526 9.227619-18.83913 8.090163-18.839133 6.943227-18.83913 5.981128-18.486046 5.203866-17.779875 4.426603-17.073704 4.033233-16.019186 4.023754-14.616323L1.393385-14.914906C1.554525-16.867539 2.248847-18.36045 3.476353-19.393643 4.703858-20.426833 6.260753-20.943428 8.147036-20.943428 10.194458-20.943428 11.789268-20.377068 12.931465-19.24435 14.073661-18.111634 14.644758-16.744315 14.644759-15.142397 14.644758-13.805883 14.16371-12.452784 13.201611-11.083097 12.239511-9.713409 10.322422-7.881629 7.450344-5.587758 5.943213-4.383949 4.943199-3.346019 4.450301-2.473969H14.701632Z"/>
<path transform="matrix(.75,0,0,.75,-1.71,-43.559999)" stroke-width="1.6" stroke-linecap="butt" stroke-miterlimit="10" stroke-linejoin="miter" fill="none" stroke="#000000" d="M96.96 542.4V532.48"/>
<path transform="matrix(.75,0,0,.75,58.53,385.2)" d="M15.398325-9.085438H1.606658V-11.474098H15.398325Z"/>
<path transform="matrix(.75,0,0,.75,71.25,385.2)" d="M10.919588 0H8.36031V-16.30829C7.08067-15.095003 5.369745-14.066552 3.227534-13.222939V-15.696907C6.175444-17.10925 8.184952-18.85809 9.256057-20.943428H10.919588Z"/>
<path transform="matrix(.75,0,0,.75,-1.71,-43.559999)" stroke-width="1.6" stroke-linecap="butt" stroke-miterlimit="10" stroke-linejoin="miter" fill="none" stroke="#000000" d="M236.16 542.4V532.48"/>
<path transform="matrix(.75,0,0,.75,169.29,385.2)" d="M10.919588 0H8.36031V-16.30829C7.08067-15.095003 5.369745-14.066552 3.227534-13.222939V-15.696907C6.175444-17.10925 8.184952-18.85809 9.256057-20.943428H10.919588Z"/>
<path transform="matrix(.75,0,0,.75,-1.71,-43.559999)" stroke-width="1.6" stroke-linecap="butt" stroke-miterlimit="10" stroke-linejoin="miter" fill="none" stroke="#000000" d="M305.76 542.4V532.48"/>
<path transform="matrix(.75,0,0,.75,221.49,385.2)" d="M14.701632 0H.895747C.895747-1.175372 1.305706-2.364963 2.125623-3.568771 2.94554-4.77258 4.478737-6.279711 6.725215-8.090163 8.099642-9.189705 9.327147-10.34375 10.407732-11.552299 11.488316-12.760845 12.028608-13.976502 12.028608-15.199269 12.028608-16.251416 11.656565-17.121098 10.912478-17.808312 10.168391-18.495526 9.227619-18.83913 8.090163-18.839133 6.943227-18.83913 5.981128-18.486046 5.203866-17.779875 4.426603-17.073704 4.033233-16.019186 4.023754-14.616323L1.393385-14.914906C1.554525-16.867539 2.248847-18.36045 3.476353-19.393643 4.703858-20.426833 6.260753-20.943428 8.147036-20.943428 10.194458-20.943428 11.789268-20.377068 12.931465-19.24435 14.073661-18.111634 14.644758-16.744315 14.644759-15.142397 14.644758-13.805883 14.16371-12.452784 13.201611-11.083097 12.239511-9.713409 10.322422-7.881629 7.450344-5.587758 5.943213-4.383949 4.943199-3.346019 4.450301-2.473969H14.701632Z"/>
<path transform="matrix(.75,0,0,.75,-1.71,-43.559999)" stroke-width="1.6" stroke-linecap="butt" stroke-miterlimit="10" stroke-linejoin="miter" fill="none" stroke="#000000" d="M375.36 542.4V532.48"/>
<path transform="matrix(.75,0,0,.75,273.69004,385.2)" d="M11.033334-11.275043C12.322452-11.028593 13.296399-10.405362 13.955176-9.405348 14.613954-8.405334 14.943342-7.31764 14.943342-6.142268 14.943342-4.246507 14.253758-2.689612 12.874592-1.471585 11.495424-.253558 9.843742 .355455 7.919545 .355455 6.080656 .355455 4.564046-.180097 3.369716-1.251203 2.175386-2.322308 1.478694-3.73939 1.279639-5.502449L3.838917-5.857904C4.094845-4.483477 4.561677-3.455026 5.239411-2.772552 5.917146-2.090077 6.810524-1.74884 7.919545-1.74884 9.113874-1.74884 10.125737-2.168278 10.955133-3.007152 11.784529-3.846026 12.199226-4.872108 12.199226-6.085395 12.199226-7.251288 11.822444-8.218126 11.068879-8.98591 10.315313-9.753694 9.331887-10.137585 8.1186-10.137586 7.625701-10.137585 7.023797-10.047537 6.312887-9.86744L6.611469-12.113917C7.293943-12.113916 7.834235-12.147093 8.232346-12.213445 8.630455-12.279797 9.075959-12.440936 9.568857-12.696864 10.061755-12.952792 10.469344-13.320096 10.791624-13.798776 11.113903-14.277455 11.275042-14.872251 11.275043-15.583161 11.275042-16.616353 10.931436-17.41731 10.244223-17.98604 9.557009-18.554768 8.763159-18.83913 7.862672-18.839133 6.829482-18.83913 5.988237-18.512112 5.338939-17.858077 4.68964-17.204037 4.279682-16.270375 4.109064-15.057088L1.549785-15.526289C1.881544-17.33674 2.613781-18.692212 3.746499-19.592698 4.879217-20.493184 6.232316-20.943428 7.805799-20.943428 9.540421-20.943428 10.988308-20.419724 12.149463-19.372315 13.310616-18.324906 13.891193-17.042899 13.891194-15.526289 13.891193-13.583132 12.938574-12.185008 11.033334-11.331916Z"/>
<path transform="matrix(.75,0,0,.75,-1.71,-43.559999)" stroke-width="1.6" stroke-linecap="butt" stroke-miterlimit="10" stroke-linejoin="miter" fill="none" stroke="#000000" d="M444.96 542.4V532.48"/>
<path transform="matrix(.75,0,0,.75,325.88999,385.2)" d="M14.843815-4.976375H12.028608V0H9.46933V-4.976375H.440765V-7.336598L9.924313-20.8439H12.028608V-7.336598H14.843815ZM9.46933-7.336598V-16.749056H9.412457L2.94317-7.336598Z"/>
<path transform="matrix(.75,0,0,.75,-1.71,-43.559999)" stroke-width="1.6" stroke-linecap="butt" stroke-miterlimit="10" stroke-linejoin="miter" fill="none" stroke="#000000" d="M514.56 542.4V532.48"/>
<path transform="matrix(.75,0,0,.75,378.09,385.2)" d="M4.606701-12.526246C5.876861-13.398296 7.194415-13.834321 8.559364-13.834321 10.293985-13.834321 11.805856-13.220568 13.094975-11.993063 14.384092-10.765556 15.02865-9.128092 15.028651-7.08067 15.02865-5.01429 14.374613-3.25834 13.066538-1.812822 11.758462-.367304 10.042797 .355455 7.919545 .355455 6.184922 .355455 4.682531-.135073 3.412371-1.11613 2.142211-2.097186 1.412343-3.549814 1.222766-5.474012L3.89579-5.673067C4.113803-4.355513 4.578264-3.372086 5.289175-2.722788 6.000086-2.073489 6.876875-1.74884 7.919545-1.74884 9.218142-1.74884 10.270289-2.239368 11.075988-3.220425 11.881687-4.201482 12.284536-5.40766 12.284536-6.838961 12.284536-8.298697 11.872208-9.450373 11.047551-10.293986 10.222895-11.1376 9.161268-11.559407 7.862672-11.559407 6.222837-11.559407 4.962156-10.891151 4.080627-9.554639L1.663531-9.839004 3.696735-20.559536H14.033377V-18.085568H5.72994Z"/>
<path transform="matrix(.75,0,0,.75,-1.71,-43.559999)" stroke-width="1.6" stroke-linecap="butt" stroke-miterlimit="10" stroke-linejoin="miter" fill="none" stroke="#000000" d="M584 542.4V532.48"/>
<path transform="matrix(.75,0,0,.75,430.29,385.2)" d="M3.810481-10.748969C4.985853-12.587857 6.658863-13.507301 8.829511-13.507302 10.535695-13.507301 11.985952-12.876961 13.180284-11.61628 14.374613-10.355598 14.971778-8.744201 14.971778-6.782088 14.971778-4.801017 14.376983-3.116158 13.187392-1.727513 11.997802-.338867 10.417211 .355455 8.445619 .355455 6.44559 .355455 4.741774-.383892 3.334171-1.862586 1.926568-3.34128 1.222766-5.971649 1.222766-9.753695 1.222766-13.469387 1.860216-16.263266 3.135116-18.13533 4.410016-20.007395 6.256014-20.943428 8.67311-20.943428 10.237113-20.943428 11.559407-20.507403 12.639992-19.635354 13.720575-18.763302 14.379353-17.469445 14.616323-15.75378L12.057045-15.526289C11.592583-17.73485 10.417211-18.83913 8.530928-18.839133 7.222852-18.83913 6.099613-18.189833 5.161211-16.891238 4.222809-15.59264 3.753608-13.545218 3.753608-10.748969ZM8.388745-1.74884C9.564117-1.74884 10.516738-2.222781 11.246607-3.170661 11.976474-4.118543 12.341408-5.265478 12.341409-6.611469 12.341408-7.957459 11.976474-9.071219 11.246607-9.952749 10.516738-10.834278 9.535681-11.275042 8.303436-11.275043 7.175458-11.275042 6.20388-10.860344 5.388703-10.03095 4.573525-9.201553 4.165936-8.10912 4.165936-6.753651 4.165936-5.369745 4.566416-4.189633 5.367375-3.213316 6.168334-2.236999 7.175457-1.74884 8.388745-1.74884Z"/>
<path transform="matrix(.75,0,0,.75,-1.71,-43.559999)" stroke-width="1.6" stroke-linecap="butt" stroke-miterlimit="10" stroke-linejoin="miter" fill="none" stroke="#000000" d="M653.6 542.4V532.48"/>
<path transform="matrix(.75,0,0,.75,482.49,385.2)" d="M14.886469-18.583205C12.839046-16.336728 11.066509-13.559435 9.568857-10.251331 8.071205-6.943227 7.189676-3.526116 6.92427 0H4.308118C4.37447-2.834163 5.073532-5.945582 6.405305-9.334257 7.737077-12.722931 9.46459-15.640034 11.587844-18.085568H1.393385V-20.559536H14.886469Z"/>
<path transform="matrix(.75,0,0,.75,-1.71,-43.559999)" stroke-width="1.6" stroke-linecap="butt" stroke-miterlimit="10" stroke-linejoin="miter" fill="none" stroke="#000000" d="M161.44 676.64H171.36"/>
<path transform="matrix(.75,0,0,.75,90.45,474)" d="M15.398325-9.085438H1.606658V-11.474098H15.398325Z"/>
<path transform="matrix(.75,0,0,.75,103.17,474)" d="M14.701632 0H.895747C.895747-1.175372 1.305706-2.364963 2.125623-3.568771 2.94554-4.77258 4.478737-6.279711 6.725215-8.090163 8.099642-9.189705 9.327147-10.34375 10.407732-11.552299 11.488316-12.760845 12.028608-13.976502 12.028608-15.199269 12.028608-16.251416 11.656565-17.121098 10.912478-17.808312 10.168391-18.495526 9.227619-18.83913 8.090163-18.839133 6.943227-18.83913 5.981128-18.486046 5.203866-17.779875 4.426603-17.073704 4.033233-16.019186 4.023754-14.616323L1.393385-14.914906C1.554525-16.867539 2.248847-18.36045 3.476353-19.393643 4.703858-20.426833 6.260753-20.943428 8.147036-20.943428 10.194458-20.943428 11.789268-20.377068 12.931465-19.24435 14.073661-18.111634 14.644758-16.744315 14.644759-15.142397 14.644758-13.805883 14.16371-12.452784 13.201611-11.083097 12.239511-9.713409 10.322422-7.881629 7.450344-5.587758 5.943213-4.383949 4.943199-3.346019 4.450301-2.473969H14.701632Z"/>
<path transform="matrix(.75,0,0,.75,-1.71,-43.559999)" stroke-width="1.6" stroke-linecap="butt" stroke-miterlimit="10" stroke-linejoin="miter" fill="none" stroke="#000000" d="M161.44 607.04H171.36"/>
<path transform="matrix(.75,0,0,.75,90.45,421.8)" d="M15.398325-9.085438H1.606658V-11.474098H15.398325Z"/>
<path transform="matrix(.75,0,0,.75,103.17,421.8)" d="M10.919588 0H8.36031V-16.30829C7.08067-15.095003 5.369745-14.066552 3.227534-13.222939V-15.696907C6.175444-17.10925 8.184952-18.85809 9.256057-20.943428H10.919588Z"/>
<path transform="matrix(.75,0,0,.75,-1.71,-43.559999)" stroke-width="1.6" stroke-linecap="butt" stroke-miterlimit="10" stroke-linejoin="miter" fill="none" stroke="#000000" d="M161.44 467.84H171.36"/>
<path transform="matrix(.75,0,0,.75,103.17,317.4)" d="M10.919588 0H8.36031V-16.30829C7.08067-15.095003 5.369745-14.066552 3.227534-13.222939V-15.696907C6.175444-17.10925 8.184952-18.85809 9.256057-20.943428H10.919588Z"/>
<path transform="matrix(.75,0,0,.75,-1.71,-43.559999)" stroke-width="1.6" stroke-linecap="butt" stroke-miterlimit="10" stroke-linejoin="miter" fill="none" stroke="#000000" d="M161.44 398.24H171.36"/>
<path transform="matrix(.75,0,0,.75,103.17,265.08)" d="M14.701632 0H.895747C.895747-1.175372 1.305706-2.364963 2.125623-3.568771 2.94554-4.77258 4.478737-6.279711 6.725215-8.090163 8.099642-9.189705 9.327147-10.34375 10.407732-11.552299 11.488316-12.760845 12.028608-13.976502 12.028608-15.199269 12.028608-16.251416 11.656565-17.121098 10.912478-17.808312 10.168391-18.495526 9.227619-18.83913 8.090163-18.839133 6.943227-18.83913 5.981128-18.486046 5.203866-17.779875 4.426603-17.073704 4.033233-16.019186 4.023754-14.616323L1.393385-14.914906C1.554525-16.867539 2.248847-18.36045 3.476353-19.393643 4.703858-20.426833 6.260753-20.943428 8.147036-20.943428 10.194458-20.943428 11.789268-20.377068 12.931465-19.24435 14.073661-18.111634 14.644758-16.744315 14.644759-15.142397 14.644758-13.805883 14.16371-12.452784 13.201611-11.083097 12.239511-9.713409 10.322422-7.881629 7.450344-5.587758 5.943213-4.383949 4.943199-3.346019 4.450301-2.473969H14.701632Z"/>
<path transform="matrix(.75,0,0,.75,-1.71,-43.559999)" stroke-width="1.6" stroke-linecap="butt" stroke-miterlimit="10" stroke-linejoin="miter" fill="none" stroke="#000000" d="M161.44 328.64H171.36"/>
<path transform="matrix(.75,0,0,.75,103.17,212.88)" d="M11.033334-11.275043C12.322452-11.028593 13.296399-10.405362 13.955176-9.405348 14.613954-8.405334 14.943342-7.31764 14.943342-6.142268 14.943342-4.246507 14.253758-2.689612 12.874592-1.471585 11.495424-.253558 9.843742 .355455 7.919545 .355455 6.080656 .355455 4.564046-.180097 3.369716-1.251203 2.175386-2.322308 1.478694-3.73939 1.279639-5.502449L3.838917-5.857904C4.094845-4.483477 4.561677-3.455026 5.239411-2.772552 5.917146-2.090077 6.810524-1.74884 7.919545-1.74884 9.113874-1.74884 10.125737-2.168278 10.955133-3.007152 11.784529-3.846026 12.199226-4.872108 12.199226-6.085395 12.199226-7.251288 11.822444-8.218126 11.068879-8.98591 10.315313-9.753694 9.331887-10.137585 8.1186-10.137586 7.625701-10.137585 7.023797-10.047537 6.312887-9.86744L6.611469-12.113917C7.293943-12.113916 7.834235-12.147093 8.232346-12.213445 8.630455-12.279797 9.075959-12.440936 9.568857-12.696864 10.061755-12.952792 10.469344-13.320096 10.791624-13.798776 11.113903-14.277455 11.275042-14.872251 11.275043-15.583161 11.275042-16.616353 10.931436-17.41731 10.244223-17.98604 9.557009-18.554768 8.763159-18.83913 7.862672-18.839133 6.829482-18.83913 5.988237-18.512112 5.338939-17.858077 4.68964-17.204037 4.279682-16.270375 4.109064-15.057088L1.549785-15.526289C1.881544-17.33674 2.613781-18.692212 3.746499-19.592698 4.879217-20.493184 6.232316-20.943428 7.805799-20.943428 9.540421-20.943428 10.988308-20.419724 12.149463-19.372315 13.310616-18.324906 13.891193-17.042899 13.891194-15.526289 13.891193-13.583132 12.938574-12.185008 11.033334-11.331916Z"/>
<path transform="matrix(.75,0,0,.75,-1.71,-43.559999)" stroke-width="1.6" stroke-linecap="butt" stroke-miterlimit="10" stroke-linejoin="miter" fill="none" stroke="#000000" d="M161.44 258.88H171.36"/>
<path transform="matrix(.75,0,0,.75,103.17,160.68001)" d="M14.843815-4.976375H12.028608V0H9.46933V-4.976375H.440765V-7.336598L9.924313-20.8439H12.028608V-7.336598H14.843815ZM9.46933-7.336598V-16.749056H9.412457L2.94317-7.336598Z"/>
<path transform="matrix(.75,0,0,.75,-1.71,-43.559999)" stroke-width="1.6" stroke-linecap="butt" stroke-miterlimit="10" stroke-linejoin="miter" fill="none" stroke="#000000" d="M161.44 189.28H171.36"/>
<path transform="matrix(.75,0,0,.75,103.17,108.48001)" d="M4.606701-12.526246C5.876861-13.398296 7.194415-13.834321 8.559364-13.834321 10.293985-13.834321 11.805856-13.220568 13.094975-11.993063 14.384092-10.765556 15.02865-9.128092 15.028651-7.08067 15.02865-5.01429 14.374613-3.25834 13.066538-1.812822 11.758462-.367304 10.042797 .355455 7.919545 .355455 6.184922 .355455 4.682531-.135073 3.412371-1.11613 2.142211-2.097186 1.412343-3.549814 1.222766-5.474012L3.89579-5.673067C4.113803-4.355513 4.578264-3.372086 5.289175-2.722788 6.000086-2.073489 6.876875-1.74884 7.919545-1.74884 9.218142-1.74884 10.270289-2.239368 11.075988-3.220425 11.881687-4.201482 12.284536-5.40766 12.284536-6.838961 12.284536-8.298697 11.872208-9.450373 11.047551-10.293986 10.222895-11.1376 9.161268-11.559407 7.862672-11.559407 6.222837-11.559407 4.962156-10.891151 4.080627-9.554639L1.663531-9.839004 3.696735-20.559536H14.033377V-18.085568H5.72994Z"/>
<path transform="matrix(.75,0,0,.75,-1.71,-43.559999)" stroke-width="1.6" stroke-linecap="butt" stroke-miterlimit="10" stroke-linejoin="miter" fill="none" stroke="#000000" d="M161.44 119.68H171.36"/>
<path transform="matrix(.75,0,0,.75,103.17,56.28)" d="M3.810481-10.748969C4.985853-12.587857 6.658863-13.507301 8.829511-13.507302 10.535695-13.507301 11.985952-12.876961 13.180284-11.61628 14.374613-10.355598 14.971778-8.744201 14.971778-6.782088 14.971778-4.801017 14.376983-3.116158 13.187392-1.727513 11.997802-.338867 10.417211 .355455 8.445619 .355455 6.44559 .355455 4.741774-.383892 3.334171-1.862586 1.926568-3.34128 1.222766-5.971649 1.222766-9.753695 1.222766-13.469387 1.860216-16.263266 3.135116-18.13533 4.410016-20.007395 6.256014-20.943428 8.67311-20.943428 10.237113-20.943428 11.559407-20.507403 12.639992-19.635354 13.720575-18.763302 14.379353-17.469445 14.616323-15.75378L12.057045-15.526289C11.592583-17.73485 10.417211-18.83913 8.530928-18.839133 7.222852-18.83913 6.099613-18.189833 5.161211-16.891238 4.222809-15.59264 3.753608-13.545218 3.753608-10.748969ZM8.388745-1.74884C9.564117-1.74884 10.516738-2.222781 11.246607-3.170661 11.976474-4.118543 12.341408-5.265478 12.341409-6.611469 12.341408-7.957459 11.976474-9.071219 11.246607-9.952749 10.516738-10.834278 9.535681-11.275042 8.303436-11.275043 7.175458-11.275042 6.20388-10.860344 5.388703-10.03095 4.573525-9.201553 4.165936-8.10912 4.165936-6.753651 4.165936-5.369745 4.566416-4.189633 5.367375-3.213316 6.168334-2.236999 7.175457-1.74884 8.388745-1.74884Z"/>
<path transform="matrix(.75,0,0,.75,509.25004,348.36)" d="M14.371097 0H11.212301L7.28515-5.976099 3.315312 0H.199203L5.73421-7.868531 .640296-15.096766H3.813321C5.881241-11.975914 7.010059-10.235256 7.199777-9.874793L10.899267-15.096766H13.958462L8.736488-8.010819Z"/>
<path transform="matrix(.75,0,0,.75,131.49,23.040009)" d="M14.342639-15.096766 8.565742 .256119C8.556256 .27509 8.54677 .308291 8.537285 .35572 7.987104 2.063177 7.344437 3.450486 6.609282 4.517647 5.874126 5.584807 4.828309 6.118387 3.471829 6.118388 3.016507 6.118387 2.461584 6.023529 1.807059 5.833812L1.55094 3.414914C2.044205 3.566688 2.527985 3.642575 3.002279 3.642575 3.950866 3.642575 4.607762 3.381713 4.972969 2.859991 5.338174 2.338268 5.748438 1.394423 6.203761 .028458L.469551-15.096766H3.229939L6.787142-5.207744C6.995831-4.600648 7.218749-3.818063 7.455896-2.859991H7.512811C7.749958-3.960352 8.053505-5.008541 8.423454-6.004557L11.738768-15.096766Z"/>
<path transform="matrix(.75,0,0,.75,18.810002,255.12)" stroke-width="4.96" stroke-linecap="round" stroke-linejoin="round" fill="none" stroke="#00ccff" d="M0 0 1.28 2.4 2.4 4.96 3.68 7.36 4.96 9.76 6.24 12.16 7.36 14.4 8.64 16.8 9.92 19.2 11.2 21.44 12.48 23.68 13.6 25.92 14.88 28.16 16.16 30.4 17.44 32.64 18.56 34.72 19.84 36.96 21.12 39.04 22.4 41.12 23.52 43.2 24.8 45.28 26.08 47.2 27.36 49.28 28.48 51.2 29.76 53.28 31.04 55.2 32.32 57.12 33.44 59.04 34.72 60.8 36 62.72 37.28 64.48 38.56 66.4 39.68 68.16 40.96 69.92 42.24 71.68 43.52 73.28 44.64 75.04 45.92 76.8 47.2 78.4 48.48 80 49.6 81.6 50.88 83.2 52.16 84.8 53.44 86.24 54.56 87.84 55.84 89.28 57.12 90.88 58.4 92.32 59.52 93.76 60.8 95.04 62.08 96.48 63.36 97.92 64.64 99.2 65.76 100.48 67.04 101.76 68.32 103.04 69.6 104.32 70.72 105.6 72 106.88 73.28 108 74.56 109.12 75.68 110.24 76.96 111.36 78.24 112.48 79.52 113.6 80.8 114.72 81.92 115.68 83.2 116.64 84.48 117.76 85.76 118.56 86.88 119.52 88.16 120.48 89.44 121.44 90.72 122.24 91.84 123.2 93.12 124 94.4 124.8 95.68 125.6 96.8 126.4 98.08 127.04 99.36 127.84 100.64 128.48 101.76 129.12 103.04 129.92 104.32 130.56 105.6 131.04 106.88 131.68 108 132.16 109.28 132.8 110.56 133.28 111.84 133.76 112.96 134.24 114.24 134.72 115.52 135.2 116.8 135.52 117.92 136 119.2 136.32 120.48 136.64 121.76 136.96 122.88 137.28 124.16 137.6 125.44 137.92 126.72 138.08 127.84 138.24 129.12 138.56 130.4 138.72H131.68L132.8 138.88 134.08 139.04H135.36L136.64 139.2H137.92 139.04 139.2 140.32 141.6L142.88 139.04H144L145.28 138.88H146.56L147.84 138.72 149.12 138.56 150.24 138.24 151.52 138.08 152.8 137.92 154.08 137.6 155.2 137.28 156.48 136.96 157.76 136.64 159.04 136.32 160.16 136 161.44 135.68 162.72 135.2 164 134.72 165.12 134.4 166.4 133.92 167.68 133.28 168.96 132.8 170.08 132.32 171.36 131.68 172.64 131.2 173.92 130.56 175.04 129.92 176.32 129.28 177.6 128.64 178.88 127.84 180.16 127.2 181.28 126.4 182.56 125.6 183.84 124.8 185.12 124 186.24 123.2 187.52 122.4 188.8 121.44 190.08 120.64 191.2 119.68 192.48 118.72 193.76 117.76 195.04 116.8 196.16 115.84 197.44 114.72 198.72 113.76 200 112.64 201.12 111.52 202.4 110.4 203.68 109.28 204.96 108.16 206.24 106.88 207.36 105.76 208.64 104.48 209.92 103.2 211.2 101.92 212.32 100.64 213.6 99.36 214.88 98.08 216.16 96.64 217.28 95.2 218.56 93.92 219.84 92.48 221.12 91.04 222.4 89.44 223.52 88 224.8 86.4 226.08 84.96 227.36 83.36 228.48 81.76 229.76 80.16 231.04 78.56 232.32 76.96 233.44 75.2 234.72 73.6 236 71.84 237.28 70.08 238.4 68.32 239.68 66.56 240.96 64.8 242.24 62.88 243.36 61.12 244.64 59.2 245.92 57.28 247.2 55.36 248.48 53.44 249.6 51.52 250.88 49.44 252.16 47.52 253.44 45.44 254.56 43.36 255.84 41.28 257.12 39.2 258.4 37.12 259.52 35.04 260.8 32.8 262.08 30.72 263.36 28.48 264.48 26.24 265.76 24 267.04 21.76 268.32 19.36 269.44 17.12 270.72 14.72 272 12.32 273.28 9.92 274.4 7.52 275.68 5.12 276.96 2.72 278.24 .16"/>
<path transform="matrix(.75,0,0,.75,-1.71,-43.559999)" stroke-width="4.96" stroke-linecap="round" stroke-linejoin="round" fill="none" stroke="#00ccff" d="M305.76 189.28 306.88 190.56 308.16 191.84 309.44 193.12 310.72 194.24 311.84 195.52 313.12 196.8 314.4 198.08 315.68 199.36 316.96 200.48 318.08 201.76 319.36 203.04 320.64 204.32 321.92 205.44 323.04 206.72 324.32 208 325.6 209.28 326.88 210.4 328.16 211.68 329.28 212.96 330.56 214.24 331.84 215.36 332.96 216.64 334.24 217.92 335.52 219.2 336.8 220.48 337.92 221.6 339.2 222.88 340.48 224.16 341.76 225.44 343.04 226.56 344.16 227.84 345.44 229.12 346.72 230.4 348 231.68 349.12 232.8 350.4 234.08 351.68 235.36 352.96 236.64 354.08 237.76 355.36 239.04 356.64 240.32 357.92 241.6 359.2 242.72 360.32 244 361.6 245.28 362.88 246.56 364.16 247.68 365.28 248.96 366.56 250.24 367.84 251.52 369.12 252.64 370.24 253.92 371.52 255.2 372.8 256.48 374.08 257.76 375.2 258.88 376.48 260.16 377.76 261.44 379.04 262.72 380.16 263.84 381.44 265.12 382.72 266.4 384 267.68 385.28 268.96 386.4 270.08 387.68 271.36 388.96 272.64 390.24 273.92 391.36 275.04 392.64 276.32 393.92 277.6 395.2 278.72 396.32 280 397.6 281.28 398.88 282.56 400.16 283.84 401.28 284.96 402.56 286.24 403.84 287.52 405.12 288.8 406.24 289.92 407.52 291.2 408.8 292.48 410.08 293.76 411.2 295.04 412.48 296.16 413.76 297.44 415.04 298.72 416.32 300 417.44 301.12 418.72 302.4 420 303.68 421.28 304.96 422.4 306.08 423.68 307.36 424.96 308.64 426.24 309.92 427.52 311.04 428.64 312.32 429.92 313.6 431.2 314.88 432.48 316.16 433.6 317.28 434.88 318.56 436.16 319.84 437.44 321.12 438.56 322.24 439.84 323.52 441.12 324.8 442.4 326.08 443.52 327.36 444.8 328.48 446.08 329.76 447.36 331.04 448.48 332.32 449.76 333.44 451.04 334.72 452.32 336 453.44 337.28 454.72 338.4 456 339.68 457.28 340.96 458.56 342.24 459.68 343.36 460.96 344.64 462.24 345.92 463.52 347.2 464.64 348.32 465.92 349.6 467.2 350.88 468.48 352.16 469.76 353.44 470.88 354.56 472.16 355.84 473.44 357.12 474.56 358.4 475.84 359.52 477.12 360.8 478.4 362.08 479.52 363.36 480.8 364.64 482.08 365.76 483.36 367.04 484.64 368.32 485.76 369.6 487.04 370.72 488.32 372 489.6 373.28 490.72 374.56 492 375.68 493.28 376.96 494.56 378.24 495.68 379.52 496.96 380.64 498.24 381.92 499.52 383.2 500.8 384.48 501.92 385.6 503.2 386.88 504.48 388.16 505.76 389.44 506.88 390.72 508.16 391.84 509.44 393.12 510.72 394.4 511.84 395.68 513.12 396.8 514.4 398.08 515.68 399.36 516.8 400.64 518.08 401.92 519.36 403.04 520.64 404.32 521.76 405.6 523.04 406.72 524.32 408 525.6 409.28 526.88 410.56 528 411.84 529.28 412.96 530.56 414.24 531.84 415.52 532.96 416.8 534.24 417.92 535.52 419.2 536.8 420.48 537.92 421.76 539.2 422.88 540.48 424.16 541.76 425.44 542.88 426.72 544.16 428 545.44 429.12 546.72 430.4 547.84 431.68 549.12 432.96 550.4 434.08 551.68 435.36 552.8 436.64 554.08 437.92 555.36 439.04 556.64 440.32 557.92 441.6 559.04 442.88 560.32 444 561.6 445.28 562.88 446.56 564 447.84 565.28 449.12 566.56 450.24 567.84 451.52 569.12 452.8 570.24 454.08 571.52 455.2 572.8 456.48 574.08 457.76 575.2 459.04 576.48 460.32 577.76 461.44 579.04 462.72 580.16 464 581.44 465.28 582.72 466.4 584 467.68 585.12 468.96 586.4 470.24 587.68 471.36 588.96 472.64 590.08 473.92 591.36 475.2 592.64 476.32 593.92 477.6 595.04 478.88 596.32 480.16 597.6 481.28 598.88 482.56 600.16 483.84 601.28 485.12 602.56 486.4 603.84 487.52 605.12 488.8 606.24 490.08 607.52 491.36 608.8 492.48 610.08 493.76 611.36 495.04 612.48 496.32 613.76 497.6 615.04 498.72 616.16 500 617.44 501.28 618.72 502.4 620 503.68 621.12 504.96 622.4 506.24 623.68 507.36 624.96 508.64 626.24 509.92 627.36 511.2 628.64 512.48 629.92 513.6 631.2 514.88 632.32 516.16 633.6 517.44 634.88 518.56 636.16 519.84 637.28 521.12 638.56 522.4 639.84 523.68 641.12 524.8 642.4 526.08 643.52 527.36 644.8 528.64 646.08 529.76 647.36 531.04 648.48 532.32 649.76 533.6 651.04 534.72 652.32 536 653.44 537.28"/>
<path transform="matrix(.75,0,0,.75,231.08998,254.76001)" d="M0 0C0-2.4-1.92-4.32-4.32-4.32-6.72-4.32-8.64-2.4-8.64 0-8.64 2.4-6.72 4.32-4.32 4.32-1.92 4.32 0 2.4 0 0Z" fill="#00ccff" fill-rule="evenodd"/>
<path transform="matrix(.75,0,0,.75,231.08998,254.76001)" stroke-width=".32" stroke-linecap="butt" stroke-miterlimit="10" stroke-linejoin="miter" fill="none" stroke="#00ccff" d="M0 0C0-2.4-1.92-4.32-4.32-4.32-6.72-4.32-8.64-2.4-8.64 0-8.64 2.4-6.72 4.32-4.32 4.32-1.92 4.32 0 2.4 0 0"/>
<path transform="matrix(.75,0,0,.75,231.92998,98.16)" d="M0 0C0-3.04-2.4-5.44-5.44-5.44-8.48-5.44-10.88-3.04-10.88 0-10.88 3.04-8.48 5.44-5.44 5.44-2.4 5.44 0 3.04 0 0Z" fill="#ffffff" fill-rule="evenodd"/>
<path transform="matrix(.75,0,0,.75,231.92998,98.16)" stroke-width="2.56" stroke-linecap="butt" stroke-miterlimit="10" stroke-linejoin="miter" fill="none" stroke="#00ccff" d="M0 0C0-3.04-2.4-5.44-5.44-5.44-8.48-5.44-10.88-3.04-10.88 0-10.88 3.04-8.48 5.44-5.44 5.44-2.4 5.44 0 3.04 0 0"/>
<path transform="matrix(.75,0,0,.75,336.33003,202.56)" d="M0 0C0-3.04-2.4-5.44-5.44-5.44-8.48-5.44-10.88-3.04-10.88 0-10.88 3.04-8.48 5.44-5.44 5.44-2.4 5.44 0 3.04 0 0Z" fill="#ffffff" fill-rule="evenodd"/>
<path transform="matrix(.75,0,0,.75,336.33003,202.56)" stroke-width="2.56" stroke-linecap="butt" stroke-miterlimit="10" stroke-linejoin="miter" fill="none" stroke="#00ccff" d="M0 0C0-3.04-2.4-5.44-5.44-5.44-8.48-5.44-10.88-3.04-10.88 0-10.88 3.04-8.48 5.44-5.44 5.44-2.4 5.44 0 3.04 0 0"/>
<g clip-path="url(#clip_0)">
<path transform="matrix(.75,0,0,.75,139.575,341.16004)" d="M0 0H-2.72L-5.02 6.77C-5.2 7.32-5.3 7.72-5.34 7.97-5.38 8.23-5.37 8.41-5.33 8.52-5.29 8.64-5.22 8.72-5.12 8.78-5.02 8.85-4.75 8.93-4.32 9.03L-4.68 10.08H-10.2L-9.84 9.03C-9.36 8.93-9.05 8.84-8.91 8.77-8.77 8.71-8.65 8.62-8.54 8.5-8.43 8.39-8.31 8.21-8.19 7.95-8.07 7.7-7.92 7.31-7.74 6.77L-5.44 0H-6.86L-6.5-1.08C-6-1.13-5.72-1.17-5.65-1.19-5.58-1.2-5.51-1.22-5.45-1.25-5.38-1.27-5.31-1.32-5.24-1.39-5.17-1.45-5.08-1.58-4.96-1.79-4.84-1.99-4.7-2.27-4.55-2.65-4.18-3.51-3.78-4.22-3.34-4.78-2.9-5.33-2.37-5.81-1.75-6.23-1.12-6.63-.49-6.92 .14-7.1 .77-7.26 1.46-7.35 2.21-7.36 2.85-7.35 3.46-7.29 4.04-7.17L3.18-4.64H1.51C1.52-5.18 1.47-5.53 1.37-5.69 1.27-5.83 1.09-5.91 .81-5.92 .61-5.91 .42-5.88 .26-5.82 .1-5.76-.06-5.67-.22-5.55-.38-5.43-.54-5.25-.72-5.03-.89-4.79-1.06-4.5-1.23-4.15-1.39-3.79-1.58-3.31-1.79-2.71L-2.17-1.6H.55L0 0Z" fill="#00ccff"/>
</g>
<path transform="matrix(.75,0,0,.75,-1.71,-43.559999)" d="M14.56 757.6H26.88V766.72H14.56Z" fill="#00ccff"/>
<path transform="matrix(.75,0,0,.75,-1.71,-43.559999)" stroke-width=".5" stroke-linecap="round" stroke-linejoin="round" fill="none" stroke="#000000" d="M26.88 766.72H14.4V757.44H26.88Z"/>
<path transform="matrix(.75,0,0,.75,23.25,530.88)" d="M6.983408 0H.90001V-8.144532H6.794518V-7.177855H1.977799V-4.688939H6.483403V-3.722262H1.977799V-.966677H6.983408ZM12.718137 2.266691H11.718126V-.616673H11.695904C11.310714-.112964 10.803301 .13889 10.173665 .13889 9.447731 .13889 8.83754-.14352 8.34309-.708341 7.84864-1.273162 7.601415-2.035207 7.601415-2.994477 7.601415-3.894486 7.825491-4.62505 8.273644-5.186167 8.721798-5.747284 9.331063-6.027843 10.101442-6.027843 10.849598-6.027843 11.410715-5.729691 11.784794-5.133389H11.812572V-5.894508H12.718137ZM10.240333-.683341C10.710708-.683341 11.092193-.872232 11.384789-1.250013 11.677384-1.627795 11.823683-2.181505 11.823683-2.911142 11.823683-3.600039 11.671829-4.161156 11.368122-4.594494 11.064415-5.027832 10.67367-5.244501 10.195888-5.244501 9.736624-5.244501 9.359768-5.050054 9.06532-4.661161 8.770872-4.272268 8.623648-3.716707 8.623648-2.994477 8.623648-2.487064 8.692167-2.061133 8.829206-1.716685 8.966244-1.372237 9.16069-1.113901 9.412546-.941677 9.6644-.769453 9.940329-.683341 10.240333-.683341ZM18.851092 0H17.956639V-.866676H17.92886C17.477002-.196298 16.860329 .13889 16.07884 .13889 15.667724 .13889 15.287164 .043519 14.93716-.147224 14.587156-.337967 14.353821-.600932 14.237153-.936121 14.120484-1.27131 14.06215-1.705574 14.062151-2.238913V-5.894508H15.062162V-2.627806C15.062162-2.105578 15.087162-1.7315 15.137163-1.505572 15.187163-1.279643 15.31772-1.09353 15.528833-.947232 15.739946-.800935 15.9918-.727786 16.284398-.727786 16.662178-.727786 17.017739-.858343 17.351077-1.119457 17.684414-1.38057 17.851082-1.922243 17.851082-2.744474V-5.894508H18.851092ZM25.214716 0H24.164704C24.068406-.185187 23.999886-.427782 23.959147-.727786 23.288769-.150002 22.564686 .13889 21.786902 .13889 21.16467 .13889 20.673926-.016667 20.314663-.327781 19.955399-.638896 19.775769-1.050011 19.775769-1.561128 19.775769-2.050022 19.948918-2.452804 20.295218-2.769474 20.641518-3.086144 21.24245-3.296332 22.098015-3.400037L23.031359-3.538927C23.37951-3.594483 23.66655-3.663002 23.892479-3.744485 23.892479-4.044488 23.883219-4.256527 23.8647-4.380603 23.846182-4.504678 23.791552-4.633383 23.70081-4.766718 23.610068-4.900053 23.464695-5.007461 23.264695-5.088943 23.064692-5.170426 22.79617-5.211167 22.45913-5.211167 22.029496-5.211167 21.689677-5.131536 21.439675-4.972276 21.18967-4.813015 21.018374-4.516715 20.925782-4.083377L19.947993-4.211156C20.0554-4.814867 20.33133-5.268575 20.77578-5.572282 21.220229-5.875989 21.831345-6.027843 22.60913-6.027843 23.316546-6.027843 23.835997-5.923212 24.167483-5.71395 24.498967-5.504689 24.702672-5.251908 24.778599-4.955609 24.854525-4.659309 24.892489-4.277823 24.89249-3.811152V-2.466693C24.892489-1.648166 24.90823-1.099086 24.939713-.819453 24.971194-.539821 25.06286-.26667 25.214716 0ZM23.892479-2.594472V-2.955587C23.37025-2.781511 22.731354-2.643547 21.975792-2.541694 21.220227-2.439841 20.842446-2.120393 20.842446-1.58335 20.842446-1.312977 20.944298-1.089826 21.148005-.913899 21.35171-.737971 21.644307-.650007 22.025794-.650007 22.51839-.650007 22.952654-.797231 23.328585-1.091678 23.704514-1.386126 23.892479-1.887057 23.892479-2.594472ZM28.54764-.011111C28.25134 .048149 28.001339 .077779 27.797633 .077779 27.360589 .077779 27.042067 .000926 26.842066-.152779 26.642064-.306485 26.51984-.501857 26.475396-.738897 26.43095-.975936 26.408728-1.30557 26.408728-1.727796V-5.122277H25.680943V-5.894508H26.408728V-7.36119L27.40874-7.966753V-5.894508H28.408749V-5.122277H27.40874V-1.67224C27.408738-1.375941 27.439293-1.165753 27.500407-1.041678 27.561516-.917602 27.716149-.855565 27.9643-.855565 28.108746-.855565 28.256896-.87038 28.408749-.90001ZM30.20588 0H29.20587V-5.894508H30.20588ZM30.20588-7.011187H29.20587V-8.144532H30.20588ZM33.995256-6.027843C34.791559-6.027843 35.45175-5.76858 35.97583-5.250056 36.49991-4.731532 36.76195-3.994487 36.76195-3.038922 36.76195-1.87965 36.478616-1.060197 35.91194-.580562 35.34527-.100927 34.70637 .13889 33.995256 .13889 33.2508 .13889 32.604497-.107409 32.056344-.600006 31.508189-1.092604 31.234112-1.874094 31.234112-2.944476 31.234112-3.981524 31.498929-4.754681 32.028566-5.263946 32.558198-5.77321 33.21376-6.027843 33.995256-6.027843ZM33.995256-.683341C34.565629-.683341 34.998968-.894454 35.29527-1.316681 35.591566-1.738908 35.739717-2.294469 35.739717-2.983365 35.739717-3.72041 35.57212-4.275972 35.236936-4.65005 34.901746-5.024128 34.48785-5.211167 33.995256-5.211167 33.48784-5.211167 33.071168-5.02135 32.74524-4.641716 32.41931-4.262083 32.256349-3.696336 32.256349-2.944476 32.256349-2.19632 32.42209-1.632425 32.753576-1.252791 33.08506-.873158 33.49895-.683341 33.995256-.683341ZM42.55601 0H41.550447V-3.583372C41.550447-4.187082 41.44211-4.601902 41.22544-4.82783 41.00877-5.053758 40.70784-5.166722 40.322656-5.166722 40.026353-5.166722 39.745798-5.094499 39.480978-4.950053 39.21616-4.805607 39.028196-4.601901 38.917085-4.338935 38.80597-4.07597 38.750413-3.703743 38.750413-3.222257V0H37.750406V-5.894508H38.650415V-5.061165H38.672636C38.883749-5.383391 39.143938-5.62506 39.453199-5.786173 39.76246-5.947286 40.120798-6.027843 40.52821-6.027843 40.83932-6.027843 41.146734-5.972286 41.450445-5.861174 41.754148-5.750062 41.99211-5.583393 42.164339-5.361169 42.336565-5.138944 42.444898-4.901905 42.48934-4.65005 42.533788-4.398195 42.556009-4.057451 42.55601-3.627817ZM50.347208 0H49.347196V-6.372291C48.847188-5.898211 48.17866-5.496355 47.341619-5.166722V-6.133399C48.49348-6.685257 49.278676-7.368598 49.6972-8.183421H50.347208ZM54.271917-4.755607H53.133016V-5.894508H54.271917ZM54.271917 0H53.133016V-1.138901H54.271917ZM63.854909-5.894508 61.599328 .100001C61.59562 .107409 61.59192 .120372 61.58822 .13889 61.373399 .805564 61.122468 1.347237 60.83543 1.763908 60.54839 2.180579 60.140054 2.388915 59.61042 2.388915 59.432638 2.388915 59.215967 2.351877 58.96041 2.277802L58.86041 1.333348C59.053 1.392607 59.241895 1.422237 59.427083 1.422238 59.797456 1.422237 60.05394 1.320385 60.196538 1.116679 60.33913 .912973 60.499319 .54445 60.677099 .011111L58.438184-5.894508H59.515974L60.904878-2.033355C60.98636-1.796315 61.073396-1.490757 61.165994-1.116679H61.188215C61.280805-1.546313 61.399324-1.955577 61.543775-2.34447L62.83823-5.894508ZM72.69122-4.78894H67.30228V-5.722284H72.69122ZM72.69122-2.311136H67.30228V-3.244479H72.69122ZM80.384868 0H79.38485V-6.372291C78.88484-5.898211 78.21632-5.496355 77.37927-5.166722V-6.133399C78.531139-6.685257 79.31633-7.368598 79.734859-8.183421H80.384868ZM85.42336-8.144532 83.06778 .272225H82.262218L84.6178-8.144532ZM91.07875 0H85.68425C85.68425-.459264 85.84444-.924084 86.16481-1.394459 86.48518-1.864835 87.08426-2.45373 87.96205-3.161145 88.49909-3.590779 88.97873-4.04171 89.400959-4.513937 89.82318-4.986165 90.03429-5.46117 90.034297-5.938953 90.03429-6.350068 89.888919-6.689887 89.598178-6.958408 89.307437-7.226929 88.939838-7.36119 88.49539-7.36119 88.04723-7.36119 87.6713-7.223226 87.3676-6.947297 87.06389-6.671368 86.91019-6.259326 86.90649-5.711173L85.87869-5.82784C85.94165-6.590811 86.21295-7.174151 86.69259-7.577859 87.17222-7.981567 87.78056-8.18342 88.51761-8.183421 89.31761-8.18342 89.94077-7.962122 90.38708-7.519526 90.833377-7.076928 91.05652-6.542663 91.056529-5.91673 91.05652-5.394503 90.86856-4.865793 90.49263-4.330602 90.1167-3.795411 89.36762-3.079663 88.245388-2.183357 87.65649-1.712981 87.26575-1.307421 87.07315-.966677H91.07875ZM96.9757 0H95.742359L94.20901-2.333359 92.65899 0H91.442317L93.60345-3.072255 91.61453-5.894508H92.85344C93.66085-4.675976 94.10159-3.996339 94.175678-3.855597L95.62013-5.894508H96.81459L94.77568-3.127811ZM101.86487-3.70004H100.85375L99.48707-7.022298 98.14816-3.70004H97.12038L99.09262-8.144532H99.898189ZM107.69049 0H102.29599C102.29598-.459264 102.45617-.924084 102.77655-1.394459 103.09692-1.864835 103.696-2.45373 104.57379-3.161145 105.11083-3.590779 105.59047-4.04171 106.012699-4.513937 106.43492-4.986165 106.64603-5.46117 106.646038-5.938953 106.64603-6.350068 106.500659-6.689887 106.209918-6.958408 105.91917-7.226929 105.551578-7.36119 105.10713-7.36119 104.65897-7.36119 104.28304-7.223226 103.97934-6.947297 103.67563-6.671368 103.52193-6.259326 103.51823-5.711173L102.49043-5.82784C102.55339-6.590811 102.82469-7.174151 103.30433-7.577859 103.78396-7.981567 104.3923-8.18342 105.12935-8.183421 105.92935-8.18342 106.55251-7.962122 106.99882-7.519526 107.445117-7.076928 107.66826-6.542663 107.66827-5.91673 107.66826-5.394503 107.4803-4.865793 107.10437-4.330602 106.72844-3.795411 105.97936-3.079663 104.857128-2.183357 104.26823-1.712981 103.87748-1.307421 103.68489-.966677H107.69049Z"/>
<path transform="matrix(.75,0,0,.75,-1.71,-43.559999)" d="M14.56 773.44H26.88V782.56H14.56Z" fill="#00ccff"/>
<path transform="matrix(.75,0,0,.75,-1.71,-43.559999)" stroke-width=".5" stroke-linecap="round" stroke-linejoin="round" fill="none" stroke="#000000" d="M26.88 782.56H14.4V773.28H26.88Z"/>
<path transform="matrix(.75,0,0,.75,23.25,542.76)" d="M6.983408 0H.90001V-8.144532H6.794518V-7.177855H1.977799V-4.688939H6.483403V-3.722262H1.977799V-.966677H6.983408ZM12.718137 2.266691H11.718126V-.616673H11.695904C11.310714-.112964 10.803301 .13889 10.173665 .13889 9.447731 .13889 8.83754-.14352 8.34309-.708341 7.84864-1.273162 7.601415-2.035207 7.601415-2.994477 7.601415-3.894486 7.825491-4.62505 8.273644-5.186167 8.721798-5.747284 9.331063-6.027843 10.101442-6.027843 10.849598-6.027843 11.410715-5.729691 11.784794-5.133389H11.812572V-5.894508H12.718137ZM10.240333-.683341C10.710708-.683341 11.092193-.872232 11.384789-1.250013 11.677384-1.627795 11.823683-2.181505 11.823683-2.911142 11.823683-3.600039 11.671829-4.161156 11.368122-4.594494 11.064415-5.027832 10.67367-5.244501 10.195888-5.244501 9.736624-5.244501 9.359768-5.050054 9.06532-4.661161 8.770872-4.272268 8.623648-3.716707 8.623648-2.994477 8.623648-2.487064 8.692167-2.061133 8.829206-1.716685 8.966244-1.372237 9.16069-1.113901 9.412546-.941677 9.6644-.769453 9.940329-.683341 10.240333-.683341ZM18.851092 0H17.956639V-.866676H17.92886C17.477002-.196298 16.860329 .13889 16.07884 .13889 15.667724 .13889 15.287164 .043519 14.93716-.147224 14.587156-.337967 14.353821-.600932 14.237153-.936121 14.120484-1.27131 14.06215-1.705574 14.062151-2.238913V-5.894508H15.062162V-2.627806C15.062162-2.105578 15.087162-1.7315 15.137163-1.505572 15.187163-1.279643 15.31772-1.09353 15.528833-.947232 15.739946-.800935 15.9918-.727786 16.284398-.727786 16.662178-.727786 17.017739-.858343 17.351077-1.119457 17.684414-1.38057 17.851082-1.922243 17.851082-2.744474V-5.894508H18.851092ZM25.214716 0H24.164704C24.068406-.185187 23.999886-.427782 23.959147-.727786 23.288769-.150002 22.564686 .13889 21.786902 .13889 21.16467 .13889 20.673926-.016667 20.314663-.327781 19.955399-.638896 19.775769-1.050011 19.775769-1.561128 19.775769-2.050022 19.948918-2.452804 20.295218-2.769474 20.641518-3.086144 21.24245-3.296332 22.098015-3.400037L23.031359-3.538927C23.37951-3.594483 23.66655-3.663002 23.892479-3.744485 23.892479-4.044488 23.883219-4.256527 23.8647-4.380603 23.846182-4.504678 23.791552-4.633383 23.70081-4.766718 23.610068-4.900053 23.464695-5.007461 23.264695-5.088943 23.064692-5.170426 22.79617-5.211167 22.45913-5.211167 22.029496-5.211167 21.689677-5.131536 21.439675-4.972276 21.18967-4.813015 21.018374-4.516715 20.925782-4.083377L19.947993-4.211156C20.0554-4.814867 20.33133-5.268575 20.77578-5.572282 21.220229-5.875989 21.831345-6.027843 22.60913-6.027843 23.316546-6.027843 23.835997-5.923212 24.167483-5.71395 24.498967-5.504689 24.702672-5.251908 24.778599-4.955609 24.854525-4.659309 24.892489-4.277823 24.89249-3.811152V-2.466693C24.892489-1.648166 24.90823-1.099086 24.939713-.819453 24.971194-.539821 25.06286-.26667 25.214716 0ZM23.892479-2.594472V-2.955587C23.37025-2.781511 22.731354-2.643547 21.975792-2.541694 21.220227-2.439841 20.842446-2.120393 20.842446-1.58335 20.842446-1.312977 20.944298-1.089826 21.148005-.913899 21.35171-.737971 21.644307-.650007 22.025794-.650007 22.51839-.650007 22.952654-.797231 23.328585-1.091678 23.704514-1.386126 23.892479-1.887057 23.892479-2.594472ZM28.54764-.011111C28.25134 .048149 28.001339 .077779 27.797633 .077779 27.360589 .077779 27.042067 .000926 26.842066-.152779 26.642064-.306485 26.51984-.501857 26.475396-.738897 26.43095-.975936 26.408728-1.30557 26.408728-1.727796V-5.122277H25.680943V-5.894508H26.408728V-7.36119L27.40874-7.966753V-5.894508H28.408749V-5.122277H27.40874V-1.67224C27.408738-1.375941 27.439293-1.165753 27.500407-1.041678 27.561516-.917602 27.716149-.855565 27.9643-.855565 28.108746-.855565 28.256896-.87038 28.408749-.90001ZM30.20588 0H29.20587V-5.894508H30.20588ZM30.20588-7.011187H29.20587V-8.144532H30.20588ZM33.995256-6.027843C34.791559-6.027843 35.45175-5.76858 35.97583-5.250056 36.49991-4.731532 36.76195-3.994487 36.76195-3.038922 36.76195-1.87965 36.478616-1.060197 35.91194-.580562 35.34527-.100927 34.70637 .13889 33.995256 .13889 33.2508 .13889 32.604497-.107409 32.056344-.600006 31.508189-1.092604 31.234112-1.874094 31.234112-2.944476 31.234112-3.981524 31.498929-4.754681 32.028566-5.263946 32.558198-5.77321 33.21376-6.027843 33.995256-6.027843ZM33.995256-.683341C34.565629-.683341 34.998968-.894454 35.29527-1.316681 35.591566-1.738908 35.739717-2.294469 35.739717-2.983365 35.739717-3.72041 35.57212-4.275972 35.236936-4.65005 34.901746-5.024128 34.48785-5.211167 33.995256-5.211167 33.48784-5.211167 33.071168-5.02135 32.74524-4.641716 32.41931-4.262083 32.256349-3.696336 32.256349-2.944476 32.256349-2.19632 32.42209-1.632425 32.753576-1.252791 33.08506-.873158 33.49895-.683341 33.995256-.683341ZM42.55601 0H41.550447V-3.583372C41.550447-4.187082 41.44211-4.601902 41.22544-4.82783 41.00877-5.053758 40.70784-5.166722 40.322656-5.166722 40.026353-5.166722 39.745798-5.094499 39.480978-4.950053 39.21616-4.805607 39.028196-4.601901 38.917085-4.338935 38.80597-4.07597 38.750413-3.703743 38.750413-3.222257V0H37.750406V-5.894508H38.650415V-5.061165H38.672636C38.883749-5.383391 39.143938-5.62506 39.453199-5.786173 39.76246-5.947286 40.120798-6.027843 40.52821-6.027843 40.83932-6.027843 41.146734-5.972286 41.450445-5.861174 41.754148-5.750062 41.99211-5.583393 42.164339-5.361169 42.336565-5.138944 42.444898-4.901905 42.48934-4.65005 42.533788-4.398195 42.556009-4.057451 42.55601-3.627817ZM51.825 0H46.430498C46.430498-.459264 46.590684-.924084 46.911058-1.394459 47.23143-1.864835 47.830514-2.45373 48.7083-3.161145 49.24534-3.590779 49.724977-4.04171 50.147207-4.513937 50.56943-4.986165 50.780546-5.46117 50.780546-5.938953 50.780546-6.350068 50.63517-6.689887 50.34443-6.958408 50.05368-7.226929 49.686086-7.36119 49.24164-7.36119 48.793485-7.36119 48.417558-7.223226 48.11385-6.947297 47.810144-6.671368 47.656435-6.259326 47.652734-5.711173L46.624944-5.82784C46.68791-6.590811 46.959207-7.174151 47.438844-7.577859 47.918474-7.981567 48.526815-8.18342 49.263864-8.183421 50.06387-8.18342 50.687028-7.962122 51.133329-7.519526 51.579629-7.076928 51.802778-6.542663 51.802778-5.91673 51.802778-5.394503 51.61481-4.865793 51.238885-4.330602 50.86295-3.795411 50.11387-3.079663 48.99164-2.183357 48.40274-1.712981 48.011995-1.307421 47.8194-.966677H51.825ZM54.271917-4.755607H53.133016V-5.894508H54.271917ZM54.271917 0H53.133016V-1.138901H54.271917ZM63.854909-5.894508 61.599328 .100001C61.59562 .107409 61.59192 .120372 61.58822 .13889 61.373399 .805564 61.122468 1.347237 60.83543 1.763908 60.54839 2.180579 60.140054 2.388915 59.61042 2.388915 59.432638 2.388915 59.215967 2.351877 58.96041 2.277802L58.86041 1.333348C59.053 1.392607 59.241895 1.422237 59.427083 1.422238 59.797456 1.422237 60.05394 1.320385 60.196538 1.116679 60.33913 .912973 60.499319 .54445 60.677099 .011111L58.438184-5.894508H59.515974L60.904878-2.033355C60.98636-1.796315 61.073396-1.490757 61.165994-1.116679H61.188215C61.280805-1.546313 61.399324-1.955577 61.543775-2.34447L62.83823-5.894508ZM69.73297-4.78894H64.344028V-5.722284H69.73297ZM69.73297-2.311136H64.344028V-3.244479H69.73297Z"/>
<path transform="matrix(.75,0,0,.75,75.810009,542.63998)" d="M6.016731-3.550038H.627785V-4.483382H6.016731Z"/>
<path transform="matrix(.75,0,0,.75,80.61,542.63998)" d="M5.611171 0H4.377825L2.844475-2.333359 1.294458 0H.077779L2.238913-3.072255 .250003-5.894508H1.488905C2.296321-4.675976 2.737066-3.996339 2.811141-3.855597L4.255601-5.894508H5.450058L3.411148-3.127811ZM11.250566-3.550038H9.022764V-1.322236H8.08942V-3.550038H5.861619V-4.483382H8.08942V-6.711183H9.022764V-4.483382H11.250566ZM17.69508-7.261189C16.895071-6.383402 16.20247-5.298205 15.617279-4.005599 15.032087-2.712992 14.687639-1.377792 14.583935 0H13.561702C13.587627-1.107419 13.860778-2.323173 14.381155-3.647261 14.90153-4.97135 15.576538-6.111176 16.406178-7.066742H12.4228V-8.03342H17.69508Z"/>
</svg>
